<?xml version="1.0" standalone="no"?>
<!DOCTYPE svg PUBLIC "-//W3C//DTD SVG 20010904//EN"
 "http://www.w3.org/TR/2001/REC-SVG-20010904/DTD/svg10.dtd">
<svg version="1.0" xmlns="http://www.w3.org/2000/svg"
 width="400.000000pt" height="400.000000pt" viewBox="0 0 400.000000 400.000000"
 preserveAspectRatio="xMidYMid meet">

<g transform="translate(0.000000,400.000000) scale(0.100000,-0.100000)"
fill="#000000" stroke="none">
<path d="M1233 3889 c-148 -25 -261 -104 -450 -315 -110 -122 -193 -269 -268
-469 -111 -297 -125 -588 -36 -764 56 -110 241 -283 381 -357 51 -27 63 -29
165 -29 97 0 116 3 166 26 30 15 71 39 90 55 18 17 45 35 59 42 14 6 32 17 40
23 16 12 18 11 150 -74 49 -32 65 -49 90 -101 41 -84 46 -150 31 -464 -15
-299 -21 -342 -61 -402 -25 -37 -30 -55 -30 -105 0 -40 6 -72 19 -96 l19 -36
-24 -49 c-27 -55 -44 -169 -44 -300 l0 -81 -118 -7 c-212 -12 -235 -28 -236
-166 l-1 -75 35 -16 c19 -10 61 -22 94 -29 80 -16 135 -1 226 61 40 27 78 49
84 50 6 0 180 2 386 4 206 2 463 8 571 13 212 9 230 14 266 69 21 31 24 147 9
295 l-8 88 30 17 c29 17 31 20 25 63 -18 136 -88 301 -175 412 -36 45 -59 70
-154 167 -21 22 -22 26 -10 50 51 99 61 134 61 225 0 50 -6 108 -13 128 -8 22
-45 69 -93 117 l-80 81 22 31 c27 39 47 133 38 179 -4 19 -9 43 -11 53 -2 16
18 26 122 63 326 116 660 323 714 442 l17 37 64 -3 c52 -3 72 1 103 18 55 31
84 86 84 160 0 138 -99 229 -230 213 l-37 -4 -55 117 c-37 79 -71 135 -102
170 -113 123 -395 215 -657 214 -73 -1 -114 -5 -131 -15 -18 -11 -63 -14 -168
-15 -135 0 -146 1 -195 26 -29 15 -63 35 -76 45 l-24 19 32 11 c24 9 31 16 29
32 -4 31 -48 44 -102 29 -42 -11 -46 -10 -119 32 -158 90 -342 124 -514 95z
m303 -60 c55 -17 216 -89 233 -105 1 -1 -4 -13 -13 -26 -9 -12 -16 -30 -16
-40 0 -24 42 -33 75 -15 26 13 31 12 84 -20 30 -18 74 -39 96 -45 46 -14 222
-16 450 -4 145 7 170 6 265 -14 199 -41 317 -92 403 -174 32 -31 57 -63 57
-75 0 -11 8 -27 18 -37 9 -10 16 -19 15 -21 -7 -8 -1 -20 22 -47 14 -16 25
-34 25 -41 0 -7 6 -25 14 -41 8 -16 20 -73 26 -128 17 -142 0 -251 -47 -306
-58 -70 -279 -212 -449 -290 -152 -71 -355 -142 -383 -136 -147 31 -137 30
-181 8 -33 -16 -48 -18 -73 -11 -108 32 -202 -61 -183 -180 4 -25 0 -52 -9
-75 -8 -19 -15 -57 -15 -84 l0 -49 -112 -8 c-61 -4 -116 -9 -123 -11 -6 -3
-16 16 -24 45 -19 75 -68 131 -176 201 l-95 63 7 36 c4 20 7 74 6 121 -2 148
-54 274 -179 435 -29 39 -68 89 -86 112 -18 23 -45 46 -60 52 -25 9 -28 8 -28
-12 0 -12 23 -49 51 -81 60 -71 118 -154 149 -216 12 -25 28 -52 35 -60 34
-43 47 -282 18 -369 -21 -65 -90 -130 -171 -162 -78 -30 -189 -31 -254 -2 -80
36 -170 103 -253 188 -149 152 -192 263 -182 474 3 64 14 157 26 206 21 93 86
266 140 373 17 34 31 66 31 71 0 27 148 218 240 311 158 159 265 208 456 209
77 1 119 -4 170 -20z m824 -1604 c41 -21 81 -78 87 -122 4 -29 -1 -46 -19 -72
-25 -36 -36 -45 -83 -62 l-30 -11 27 -21 c15 -12 50 -40 79 -62 66 -50 125
-125 139 -173 25 -93 6 -206 -50 -286 -43 -63 -70 -75 -106 -47 -31 25 -114
51 -160 51 -17 0 -51 -7 -75 -15 -43 -16 -44 -16 -66 10 -12 14 -27 44 -34 68
-15 57 -5 175 20 231 17 41 24 46 51 46 27 0 31 3 28 23 -3 19 -9 22 -54 22
-29 0 -59 7 -68 15 -44 36 -63 127 -33 158 12 12 22 10 65 -13 54 -28 72 -27
72 5 0 14 -18 29 -60 50 -71 36 -88 64 -71 122 23 74 100 102 146 52 13 -14
31 -48 40 -75 14 -41 21 -49 41 -49 30 0 31 19 3 80 l-20 45 26 22 c30 27 64
29 105 8z m-357 -445 c14 -11 30 -20 36 -20 6 0 4 -16 -6 -42 -11 -29 -16 -77
-17 -149 0 -99 2 -109 31 -167 l32 -62 -24 -42 c-13 -24 -27 -60 -30 -80 -4
-21 -10 -38 -14 -38 -4 0 -24 38 -45 84 -21 47 -53 102 -72 123 l-35 38 5 -35
c5 -42 63 -198 111 -298 42 -87 45 -140 14 -247 -27 -91 -52 -118 -111 -119
-34 -1 -42 2 -39 14 11 38 12 117 2 152 -10 31 -16 38 -38 38 -24 0 -25 -2
-17 -37 14 -67 11 -124 -8 -137 -15 -9 -24 -4 -55 26 -35 35 -36 39 -23 63 10
18 11 33 4 52 -11 32 -34 42 -34 15 0 -11 -6 -25 -14 -31 -11 -9 -18 -6 -36
16 -26 33 -22 91 10 135 11 15 24 38 29 52 5 13 19 167 31 342 12 176 23 320
24 321 0 1 44 13 96 27 118 31 159 32 193 6z m375 -466 c32 -35 40 -49 30 -55
-16 -9 -160 -39 -188 -39 -22 0 -25 -7 -10 -30 13 -21 105 -19 197 4 82 20
100 15 131 -36 36 -59 37 -76 5 -84 -15 -4 -32 -10 -38 -14 -5 -4 -26 -10 -45
-13 -65 -10 -90 -24 -90 -52 0 -22 4 -25 39 -25 34 0 119 22 173 44 37 16 162
-199 199 -342 11 -43 23 -126 25 -187 5 -94 3 -115 -13 -145 -28 -53 -54 -61
-256 -70 -210 -11 -749 -11 -820 -2 -45 6 -50 10 -61 43 -7 20 -24 51 -38 70
-38 51 -51 103 -45 178 6 71 44 201 59 201 5 0 41 -16 81 -36 39 -20 88 -42
107 -49 l35 -12 -38 -7 c-22 -4 -37 -13 -37 -21 0 -8 3 -15 8 -15 4 -1 48 -3
97 -6 150 -7 380 -26 388 -31 25 -15 -6 52 -63 137 -47 67 -80 142 -120 266
-38 120 -40 191 -5 260 46 93 101 127 190 120 56 -4 63 -7 103 -52z m202 -61
c147 -159 234 -314 255 -458 11 -71 -9 -55 -59 48 -24 51 -67 127 -95 168 -27
41 -60 102 -72 134 -14 38 -40 78 -71 111 -26 28 -48 54 -48 57 0 22 36 -2 90
-60z m-491 -418 c18 -41 48 -100 66 -130 l34 -55 -48 0 c-26 0 -90 3 -141 7
l-93 6 34 16 c43 20 74 77 91 164 7 37 15 67 18 67 4 0 21 -34 39 -75z"/>
<path d="M1976 3305 c-23 -24 -29 -58 -24 -133 7 -83 24 -122 53 -122 32 0 50
50 50 135 -1 105 -37 161 -79 120z"/>
<path d="M647 3024 c-37 -20 -87 -126 -87 -186 0 -24 -5 -49 -11 -55 -16 -16
-23 -182 -10 -259 18 -108 62 -186 156 -281 109 -109 195 -153 303 -153 143 0
219 62 241 196 12 80 -3 185 -40 263 -36 79 -204 319 -273 389 -90 92 -203
127 -279 86z"/>
</g>
</svg>
